<svg width="130" height="35" viewBox="0 0 130 35" fill="none" xmlns="http://www.w3.org/2000/svg">
<g clip-path="url(#clip0_5_50)">
<path d="M18.5148 10.1792C16.5328 9.77813 14.4823 9.95311 12.5905 10.6847C12.4986 10.7224 12.4148 10.7784 12.3439 10.8496C12.2729 10.9208 12.2162 11.0058 12.177 11.0997C12.0977 11.2893 12.0945 11.5037 12.168 11.6958C12.2414 11.8879 12.3856 12.0419 12.5687 12.124C12.7518 12.206 12.9589 12.2094 13.1444 12.1333C14.7733 11.4956 16.5403 11.3341 18.252 11.6667C18.3523 11.694 18.457 11.6995 18.5595 11.6829C18.662 11.6662 18.7601 11.6278 18.8475 11.57C18.9349 11.5121 19.0098 11.4361 19.0675 11.3468C19.1252 11.2575 19.1643 11.1568 19.1826 11.0511C19.2008 10.9453 19.1976 10.8368 19.1733 10.7323C19.149 10.6279 19.1041 10.5298 19.0414 10.4442C18.9786 10.3586 18.8995 10.2875 18.8088 10.2351C18.7182 10.1828 18.6181 10.1505 18.5148 10.1403V10.1792Z" fill="#D99BFF"/>
<path d="M23.829 17.5681C24.5342 17.5681 25.1059 16.9761 25.1059 16.2458C25.1059 15.5156 24.5342 14.9236 23.829 14.9236C23.1238 14.9236 22.5521 15.5156 22.5521 16.2458C22.5521 16.9761 23.1238 17.5681 23.829 17.5681Z" fill="#D99BFF"/>
<path d="M33.34 18.1125C33.253 17.9792 33.1354 17.8703 32.9977 17.7957C32.8601 17.721 32.7067 17.6829 32.5513 17.6847C31.7927 17.5757 31.0968 17.1895 30.589 16.5958C29.6119 15.4899 28.7815 14.254 28.1197 12.9208L30.8237 8.54583C30.9878 8.2923 31.0883 8.00044 31.1162 7.69661C31.1441 7.39277 31.0984 7.08654 30.9834 6.80555C30.8681 6.54993 30.694 6.32756 30.4762 6.15802C30.2585 5.98848 30.0038 5.87698 29.7346 5.83333C28.0151 5.59337 26.265 5.84554 24.674 6.5625C23.7623 6.97837 22.9043 7.51075 22.1202 8.14722C20.5846 7.43417 18.9493 6.97803 17.2756 6.79583C10.6189 6.125 4.53486 10.5972 3.75558 16.5278C3.45189 16.3863 3.17989 16.181 2.95685 15.925C2.73381 15.6689 2.56459 15.3676 2.45992 15.0403C2.39297 14.8158 2.37012 14.5797 2.39269 14.346C2.41527 14.1122 2.48282 13.8855 2.59136 13.6792C2.6887 13.506 2.82782 13.3619 2.99508 13.2611C3.10913 13.1896 3.20847 13.0956 3.28741 12.9843C3.36636 12.8731 3.42337 12.7468 3.45519 12.6127C3.48701 12.4787 3.49302 12.3394 3.47288 12.203C3.45273 12.0665 3.40682 11.9355 3.33778 11.8174C3.26873 11.6993 3.1779 11.5964 3.07046 11.5147C2.96303 11.4329 2.8411 11.3739 2.71163 11.3409C2.58216 11.308 2.44769 11.3017 2.3159 11.3226C2.18411 11.3435 2.05758 11.391 1.94353 11.4625C1.48903 11.7514 1.11397 12.1565 0.854418 12.6389C0.613107 13.0916 0.461414 13.5896 0.408213 14.1038C0.355013 14.618 0.401374 15.1379 0.544584 15.6333C0.72086 16.2336 1.01318 16.7905 1.40377 17.2702C1.79437 17.7499 2.27508 18.1423 2.81669 18.4236L3.68047 18.8708C3.78838 21.2375 4.37029 23.555 5.38925 25.6764L5.54886 26.0458C6.3632 27.8292 7.40186 29.4932 8.6378 30.9944C8.72579 31.0981 8.83409 31.1813 8.9555 31.2383C9.07692 31.2953 9.20866 31.3248 9.34197 31.325H13.5857C13.7395 31.3242 13.8908 31.2843 14.0262 31.2088C14.1616 31.1333 14.277 31.0246 14.3623 30.8921C14.4476 30.7596 14.5001 30.6074 14.5154 30.449C14.5306 30.2905 14.508 30.1306 14.4495 29.9833L14.0834 29.1083L15.1912 29.2347C16.4401 29.3626 17.698 29.3626 18.9468 29.2347C19.2942 29.8181 19.6697 30.4014 20.0829 30.975C20.1693 31.0975 20.2823 31.1974 20.4127 31.2666C20.5431 31.3358 20.6874 31.3725 20.834 31.3736H24.9087C25.0637 31.3735 25.2162 31.3336 25.3527 31.2576C25.4892 31.1816 25.6054 31.0718 25.6909 30.938C25.7764 30.8042 25.8287 30.6505 25.8429 30.4907C25.8571 30.3309 25.833 30.17 25.7725 30.0222C25.6129 29.6333 25.4533 29.2153 25.3312 28.8556C25.1622 28.3403 25.0308 27.8833 24.9275 27.4458C25.9644 26.8662 26.916 26.1361 27.7536 25.2778C28.6891 25.3949 29.6348 25.3949 30.5702 25.2778C30.7325 25.2524 30.8856 25.1833 31.0141 25.0776C31.1426 24.9718 31.242 24.833 31.3026 24.675L33.4245 19.0264C33.4842 18.8786 33.5077 18.7179 33.493 18.5585C33.4782 18.399 33.4257 18.2458 33.34 18.1125ZM29.791 23.4014C29.0539 23.4448 28.3145 23.409 27.5846 23.2944C26.7534 23.1491 25.9509 22.8633 25.2092 22.4486C24.9895 22.3358 24.7359 22.3165 24.5027 22.3947C24.2694 22.473 24.075 22.6427 23.961 22.8674C23.8469 23.0922 23.8223 23.3542 23.8924 23.5975C23.9625 23.8408 24.1217 24.0461 24.336 24.1694C24.7284 24.3825 25.1329 24.5708 25.5472 24.7333C25.0352 25.186 24.4668 25.5653 23.8572 25.8611L22.862 26.3278C22.862 26.3278 23.322 28.4569 23.6319 29.4H21.3973C21.172 29.0694 20.0359 27.1056 20.0359 27.1056L19.4069 27.1931C18.0855 27.3903 16.7466 27.4295 15.4166 27.3097C14.7969 27.2514 13.7641 27.1153 12.9567 26.9694L11.5014 26.7069C11.5014 26.7069 12.0929 29.0694 12.2056 29.3708H9.78325C8.79376 28.1162 7.95514 26.7418 7.2858 25.2778L7.1168 24.8986C5.89691 22.467 5.38175 19.7222 5.63336 16.9944C6.14036 11.9486 11.3794 8.1375 17.0784 8.69167C18.7363 8.88411 20.3497 9.37085 21.848 10.1306L22.4301 10.4125L22.8995 9.95555C23.6306 9.27906 24.4569 8.72175 25.35 8.30278C26.5317 7.77208 27.8225 7.55488 29.1056 7.67083L25.9321 12.8139L26.1669 13.3C26.9869 15.0103 28.0328 16.594 29.2746 18.0056C29.8514 18.5893 30.5343 19.0486 31.2838 19.3569L29.791 23.4014Z" fill="#D99BFF"/>
</g>
<g clip-path="url(#clip1_5_50)">
<path d="M80.7366 24.4027L84.3313 22.7677C85.0132 25.0931 86.568 27.0269 89.3638 27.0269C91.4413 27.0269 92.8392 25.7357 92.8392 24.1874C92.8392 19.4985 81.6151 22.5522 81.6151 14.3373C81.6151 10.9384 84.3711 8.4 88.7239 8.4C92.5186 8.4 95.7145 10.5517 96.5931 13.7339L92.9993 15.3691C92.48 13.2186 90.6025 12.0143 88.7648 12.0143C86.8475 12.0143 85.6485 12.8306 85.6485 14.2516C85.6485 18.4239 96.9533 15.2406 96.9533 24.1446C96.9533 27.8873 93.9177 30.7696 89.3638 30.7696C84.4507 30.7696 81.6549 27.5005 80.7366 24.4027Z" fill="white"/>
<path d="M98.4224 24.4027L102.017 22.7677C102.699 25.0931 104.254 27.0269 107.051 27.0269C109.127 27.0269 110.525 25.7357 110.525 24.1874C110.525 19.4985 99.3009 22.5522 99.3009 14.3373C99.3009 10.9384 102.057 8.4 106.411 8.4C110.206 8.4 113.4 10.5517 114.28 13.7339L110.685 15.3691C110.166 13.2186 108.288 12.0143 106.451 12.0143C104.534 12.0143 103.335 12.8306 103.335 14.2516C103.335 18.4239 114.639 15.2406 114.639 24.1446C114.639 27.8873 111.603 30.7696 107.05 30.7696C102.138 30.7696 99.3407 27.5005 98.4224 24.4027Z" fill="white"/>
<path d="M78.4316 16.9186V30.4258H74.1617V27.114C73.0037 29.3072 70.525 30.7698 67.8507 30.7698C63.856 30.7698 61.1 28.0599 61.1 24.3613C61.1 20.1021 64.1754 17.8219 70.367 17.1402L74.1617 16.7044V16.4021C74.1617 13.7352 72.4446 12.1013 69.8079 12.1013C67.3712 12.1013 65.6539 13.6495 65.3755 16.2308L61.4614 15.456C62.1001 11.198 65.5357 8.40137 69.8089 8.40137C74.9164 8.40137 78.4316 11.4979 78.4316 16.9186ZM74.1617 21.0898V20.1865L70.3272 20.6602C67.0519 21.0469 65.3744 22.3381 65.3744 24.2304C65.3744 25.9513 66.6927 27.1555 68.7293 27.1555C72.116 27.1555 74.1174 24.6183 74.1617 21.0898Z" fill="white"/>
<path d="M43.0246 27.7022V30.4562H38.6707V0H43.0246V11.4853C44.2224 9.67877 46.5795 8.42548 49.1753 8.42548C55.2464 8.42548 58.7219 13.0764 58.7219 19.6097C58.7219 26.143 55.2464 30.7938 49.0946 30.7938C46.4193 30.8 43.9826 29.5088 43.0246 27.7022ZM54.3679 19.6158C54.3679 15.3138 52.0506 12.517 48.5354 12.517C45.0202 12.517 42.704 15.3125 42.704 19.6158C42.704 23.8738 45.0214 26.7145 48.5354 26.7145C52.0495 26.7145 54.3679 23.875 54.3679 19.6158Z" fill="white"/>
</g>
<defs>
<clipPath id="clip0_5_50">
<rect width="33.8" height="35" fill="white"/>
</clipPath>
<clipPath id="clip1_5_50">
<rect width="119.6" height="30.8" fill="white" transform="translate(10.4)"/>
</clipPath>
</defs>
</svg>
