<svg width="40" height="40" viewBox="0 0 40 40" fill="none" xmlns="http://www.w3.org/2000/svg">
<path d="M20 3.33337C10.81 3.33337 3.33334 10.81 3.33334 20V26.905C3.33334 28.6117 4.82834 30 6.66668 30H8.33334C8.77537 30 9.19929 29.8244 9.51185 29.5119C9.82441 29.1993 10 28.7754 10 28.3334V19.7617C10 19.3197 9.82441 18.8958 9.51185 18.5832C9.19929 18.2706 8.77537 18.095 8.33334 18.095H6.82001C7.74668 11.645 13.2967 6.66671 20 6.66671C26.7033 6.66671 32.2533 11.645 33.18 18.095H31.6667C31.2246 18.095 30.8007 18.2706 30.4882 18.5832C30.1756 18.8958 30 19.3197 30 19.7617V30C30 31.8384 28.505 33.3334 26.6667 33.3334H23.3333V31.6667H16.6667V36.6667H26.6667C30.3433 36.6667 33.3333 33.6767 33.3333 30C35.1717 30 36.6667 28.6117 36.6667 26.905V20C36.6667 10.81 29.19 3.33337 20 3.33337Z" fill="#D99BFF"/>
</svg>
