<svg width="39" height="39" viewBox="0 0 39 39" fill="none" xmlns="http://www.w3.org/2000/svg">
<path d="M19.5 21.6661L4.51262 31.6583C4.39027 31.7397 4.24812 31.7864 4.10132 31.7934C3.95452 31.8004 3.80857 31.7675 3.679 31.6981C3.54943 31.6288 3.44111 31.5256 3.36556 31.3995C3.29001 31.2734 3.25008 31.1292 3.25 30.9823V8.01777C3.25008 7.8708 3.29001 7.7266 3.36556 7.60054C3.44111 7.47447 3.54943 7.37126 3.679 7.30189C3.80857 7.23252 3.95452 7.19959 4.10132 7.20662C4.24812 7.21364 4.39027 7.26035 4.51262 7.34177L19.5 17.3339V8.01777C19.5001 7.8708 19.54 7.7266 19.6156 7.60054C19.6911 7.47447 19.7994 7.37126 19.929 7.30189C20.0586 7.23252 20.2045 7.19959 20.3513 7.20662C20.4981 7.21364 20.6403 7.26035 20.7626 7.34177L37.986 18.824C38.0973 18.8982 38.1885 18.9987 38.2516 19.1167C38.3147 19.2346 38.3477 19.3663 38.3477 19.5C38.3477 19.6338 38.3147 19.7654 38.2516 19.8834C38.1885 20.0013 38.0973 20.1018 37.986 20.176L20.7626 31.6583C20.6403 31.7397 20.4981 31.7864 20.3513 31.7934C20.2045 31.8004 20.0586 31.7675 19.929 31.6981C19.7994 31.6288 19.6911 31.5256 19.6156 31.3995C19.54 31.2734 19.5001 31.1292 19.5 30.9823V21.6661Z" fill="#D99BFF"/>
</svg>
